Coordinates
version=1
nRows=11
nColumns=40
inDegrees=yes

Units are S.I. units (second, meters, Newtons, ...)
If the header above contains a line with 'inDegrees', this indicates whether rotational values are in degrees (yes) or radians (no).

endheader
time	pelvis_tilt	pelvis_list	pelvis_rotation	pelvis_tx	pelvis_ty	pelvis_tz	hip_flexion_r	hip_adduction_r	hip_rotation_r	knee_angle_r	knee_angle_r_beta	ankle_angle_r	subtalar_angle_r	mtp_angle_r	hip_flexion_l	hip_adduction_l	hip_rotation_l	knee_angle_l	knee_angle_l_beta	ankle_angle_l	subtalar_angle_l	mtp_angle_l	lumbar_extension	lumbar_bending	lumbar_rotation	arm_flex_r	arm_add_r	arm_rot_r	elbow_flex_r	pro_sup_r	wrist_flex_r	wrist_dev_r	arm_flex_l	arm_add_l	arm_rot_l	elbow_flex_l	pro_sup_l	wrist_flex_l	wrist_dev_l
     18.85000000	     38.73628798	    -10.21303172	    177.65528319	      0.34883036	      0.82190585	     -0.57840100	     81.91160255	     -8.82003528	      4.46252966	     48.27712076	      0.84259471	      5.46607463	      0.00000000	      0.00000000	     76.35261205	     -2.61830566	    -14.84312618	     47.21558522	      0.82406742	      9.74367666	      0.00000000	      0.00000000	    -27.79028924	     -7.41862784	     -4.48550052	     49.93094714	    -13.03406823	     40.38373272	     10.40157487	      5.92406331	      0.00000000	      0.00000000	     55.44693491	    -16.14240932	     39.50763400	     15.65863121	     87.74290833	      0.00000000	      0.00000000
     18.85500000	     38.82851166	    -10.18968873	    177.60962092	      0.34894375	      0.82390162	     -0.57836687	     81.54699484	     -8.86750624	      4.11595245	     47.43793473	      0.82794815	      5.23539214	      0.00000000	      0.00000000	     75.98507002	     -2.61657222	    -15.04571555	     46.33762235	      0.80874408	      9.51225217	      0.00000000	      0.00000000	    -27.53334224	     -7.41784100	     -4.40414326	     49.77983515	    -13.08239461	     40.38134599	     10.46924107	      5.89217634	      0.00000000	      0.00000000	     55.26691274	    -16.19578697	     39.64707746	     15.74784284	     87.73334456	      0.00000000	      0.00000000
     18.86000000	     38.82769597	    -10.17014487	    177.57398858	      0.34901671	      0.82600401	     -0.57830231	     81.12775305	     -8.80898797	      4.12582381	     46.68417516	      0.81479257	      4.84555198	      0.00000000	      0.00000000	     75.58407521	     -2.49521227	    -14.96414069	     45.55754221	      0.79512911	      9.18723382	      0.00000000	      0.00000000	    -27.37604275	     -7.41317968	     -4.35350493	     49.60534598	    -13.09698079	     40.41045374	     10.49611385	      5.84997982	      0.00000000	      0.00000000	     55.11586566	    -16.23148319	     39.82831029	     15.80246935	     87.71999718	      0.00000000	      0.00000000
     18.86500000	     38.74073124	    -10.19461723	    177.54561136	      0.34896144	      0.82794638	     -0.57823610	     80.70972800	     -8.79692040	      4.17932959	     46.09876823	      0.80457529	      4.48870828	      0.00000000	      0.00000000	     75.16658110	     -2.37638683	    -14.94974289	     44.93876969	      0.78432949	      8.85835595	      0.00000000	      0.00000000	    -27.27622935	     -7.45433519	     -4.34732635	     49.43823327	    -13.09994018	     40.52753397	     10.49078682	      5.78975185	      0.00000000	      0.00000000	     54.96627535	    -16.25649543	     40.00341540	     15.80118218	     87.69327632	      0.00000000	      0.00000000
     18.87000000	     38.74355525	    -10.17916299	    177.50250083	      0.34886995	      0.82954789	     -0.57821776	     80.42622675	     -8.81868361	      3.99348956	     45.61840508	      0.79619137	      4.29615926	      0.00000000	      0.00000000	     74.87130510	     -2.36063103	    -15.04745511	     44.41912117	      0.77525992	      8.70421581	      0.00000000	      0.00000000	    -27.03408214	     -7.46426545	     -4.27138651	     49.21751822	    -13.11759102	     40.60759105	     10.49711662	      5.75925820	      0.00000000	      0.00000000	     54.74383130	    -16.27326987	     40.13689312	     15.83027933	     87.69102425	      0.00000000	      0.00000000
     18.87500000	     38.72927421	    -10.17746671	    177.46773566	      0.34873527	      0.83115957	     -0.57814659	     80.12637392	     -8.84915214	      3.84939156	     45.13919808	      0.78782763	      4.08309591	      0.00000000	      0.00000000	     74.58817821	     -2.33099007	    -15.12848641	     43.93862680	      0.76687371	      8.47495168	      0.00000000	      0.00000000	    -26.81502723	     -7.48222114	     -4.20606302	     48.99901067	    -13.16068789	     40.67398009	     10.49918731	      5.73372945	      0.00000000	      0.00000000	     54.51807363	    -16.28423922	     40.23352021	     15.85600799	     87.69316845	      0.00000000	      0.00000000
     18.88000000	     38.65301608	    -10.18137514	    177.44185601	      0.34843276	      0.83219068	     -0.57814078	     79.92717815	     -8.87258147	      3.79291784	     45.00819537	      0.78554120	      4.01709185	      0.00000000	      0.00000000	     74.39697364	     -2.30511876	    -15.12768478	     43.82204567	      0.76483898	      8.41099190	      0.00000000	      0.00000000	    -26.56812721	     -7.50790897	     -4.17077451	     48.71935703	    -13.13263320	     40.68746372	     10.44351291	      5.72274691	      0.00000000	      0.00000000	     54.24907156	    -16.27757153	     40.27347395	     15.80706535	     87.69980964	      0.00000000	      0.00000000
     18.88500000	     38.59900967	    -10.11562919	    177.34473234	      0.34853437	      0.83456980	     -0.57823166	     79.30845934	     -8.74778915	      3.74878925	     43.96939985	      0.76741080	      3.53918412	      0.00000000	      0.00000000	     73.90662352	     -2.24243251	    -14.98908887	     42.92066395	      0.74910690	      7.97668470	      0.00000000	      0.00000000	    -26.49538125	     -7.48730414	     -4.05709257	     48.60378592	    -13.20863385	     40.82411298	     10.54019702	      5.69942736	      0.00000000	      0.00000000	     54.15487491	    -16.31228957	     40.35738695	     15.88737350	     87.66403210	      0.00000000	      0.00000000
     18.89000000	     38.50881603	    -10.11721078	    177.31169252	      0.34817954	      0.83548278	     -0.57816756	     79.12634248	     -8.77258777	      3.69870034	     43.90419003	      0.76627267	      3.50639447	      0.00000000	      0.00000000	     73.73844304	     -2.22462211	    -14.99406557	     42.85709781	      0.74799746	      7.93340548	      0.00000000	      0.00000000	    -26.24825757	     -7.49823905	     -4.01404890	     48.34058665	    -13.18412141	     40.83375233	     10.47486744	      5.68986907	      0.00000000	      0.00000000	     53.86671555	    -16.30098390	     40.39399133	     15.82451306	     87.67338552	      0.00000000	      0.00000000
     18.89500000	     38.40192225	     -9.99442727	    177.18249323	      0.34811272	      0.83766209	     -0.57843437	     78.48416398	     -8.63062471	      3.51120793	     42.97848130	      0.75011601	      3.14504320	      0.00000000	      0.00000000	     73.23493378	     -2.24909361	    -14.87945440	     42.06857733	      0.73423519	      7.60307134	      0.00000000	      0.00000000	    -26.18141078	     -7.44467583	     -3.84486280	     48.17875450	    -13.22004012	     41.04128794	     10.54098167	      5.67757360	      0.00000000	      0.00000000	     53.73462520	    -16.32411768	     40.47829748	     15.91578372	     87.65716634	      0.00000000	      0.00000000
     18.90000000	     38.28734949	     -9.96256869	    177.10616667	      0.34773007	      0.83881924	     -0.57844253	     78.19786208	     -8.62929946	      3.31297875	     42.73092116	      0.74579527	      3.05021534	      0.00000000	      0.00000000	     72.93879546	     -2.27828389	    -14.94544366	     41.79463247	      0.72945395	      7.53475714	      0.00000000	      0.00000000	    -25.98171735	     -7.44158061	     -3.74651034	     47.94109432	    -13.24355927	     41.12531476	     10.50895153	      5.66839445	      0.00000000	      0.00000000	     53.46267797	    -16.32960492	     40.56283790	     15.90758886	     87.66369502	      0.00000000	      0.00000000
